<svg data-name="Layer 1" viewBox="0 0 24 24" xmlns="http://www.w3.org/2000/svg"><path d="M21.207 2.793a1 1 0 0 0-1.414 0l-6.9 6.9 1.414 1.414 6.9-6.9a1 1 0 0 0 0-1.414ZM12.31 16.14c-1.516-1.486-3.062-3.015-4.4-4.572l-.218.12-.01.006a6.874 6.874 0 0 1-4.885.658.653.653 0 0 0-.795.692 9.822 9.822 0 0 0 2.779 6.13 12.323 12.323 0 0 0 4.178-1.777 14.8 14.8 0 0 1-2.45 3.195 12.053 12.053 0 0 0 2.187 1.173.642.642 0 0 0 .244.047.653.653 0 0 0 .471-.2 17.8 17.8 0 0 0 3.216-4.886l.087-.188-.403-.398ZM13.36 15.069l.048.047.422-.844a1.612 1.612 0 0 0-.302-1.861l-1.657-1.657a1.612 1.612 0 0 0-1.861-.302l-.76.38c1.251 1.429 2.697 2.851 4.11 4.237Z" fill="#597aff" class="fill-000000"></path></svg>