<?xml version="1.0" encoding="UTF-8" standalone="no" ?>
<!DOCTYPE svg PUBLIC "-//W3C//DTD SVG 1.1//EN" "http://www.w3.org/Graphics/SVG/1.1/DTD/svg11.dtd">
<svg xmlns="http://www.w3.org/2000/svg" xmlns:xlink="http://www.w3.org/1999/xlink" version="1.1" width="150" height="150" viewBox="0 0 150 150" xml:space="preserve">
<desc>Created with Fabric.js 4.6.0</desc>
<defs>
</defs>
<g transform="matrix(1 0 0 1 75.3 75.3)" id="1hItga7MSDguUcbXGLi8y"  >
<g style="" vector-effect="non-scaling-stroke"   >
		<g transform="matrix(0.7 0 0 0.7 0 0)" id="kMDKsjeoc3UPVG6DYMPgH"  >
<path style="stroke: none; stroke-width: 1; stroke-dasharray: none; stroke-linecap: butt; stroke-dashoffset: 0; stroke-linejoin: miter; stroke-miterlimit: 4; fill: rgb(255,64,19); fill-rule: nonzero; opacity: 1;" vector-effect="non-scaling-stroke"  transform=" translate(10757.5, -21501.5)" d="M -10757.5 21608 C -10771.740249797118 21608.028185885683 -10785.83960408293 21605.180968682427 -10798.953 21599.629 C -10805.286788431218 21596.948712749556 -10811.345798647693 21593.66066486622 -10817.045 21589.811 C -10822.700977034881 21585.98721778126 -10827.978927597323 21581.63212166306 -10832.807 21576.805 C -10837.632668397739 21571.977229101652 -10841.985799872333 21566.699224616845 -10845.807 21561.043 C -10849.65582428174 21555.34382301125 -10852.944147214315 21549.28559286049 -10855.626 21542.953 C -10861.176201998442 21529.83912731868 -10864.022692894592 21515.740001124614 -10863.995 21501.5 C -10864.022715099793 21487.2593501158 -10861.176228690314 21473.159565899652 -10855.626 21460.045 C -10852.944229242097 21453.71173359477 -10849.65590541304 21447.652832004453 -10845.807 21441.952999999998 C -10841.984803040712 21436.297520591743 -10837.631747106596 21431.019607696857 -10832.807 21426.191 C -10827.97786893108 21421.36682919671 -10822.700013236592 21417.013820439683 -10817.045 21413.191 C -10811.345492154222 21409.34183999133 -10805.286532184537 21406.05381937546 -10798.953 21403.373 C -10785.83915989798 21397.82269260481 -10771.740011987837 21394.97619732437 -10757.5 21395.004 C -10743.259673138127 21394.976282282336 -10729.160215219137 21397.82277148299 -10716.046 21403.373 C -10709.712706493834 21406.053656744767 -10703.654063020802 21409.341687346623 -10697.955 21413.191 C -10692.299374690438 21417.013001808646 -10687.021443878166 21421.366072520454 -10682.193 21426.191 C -10677.368419620352 21431.019759116734 -10673.01537734081 21436.297655455975 -10669.193 21441.952999999998 C -10665.343360010364 21447.65238604848 -10662.054996536333 21453.711360686648 -10659.374 21460.045 C -10653.823217928117 21473.159394846385 -10650.97670849924 21487.25929308681 -10651.005 21501.5 C -10650.976703202732 21515.74006087763 -10653.823218218788 21529.839306541457 -10659.374 21542.953 C -10662.055078627323 21549.285965783725 -10665.343441204775 21555.34426897408 -10669.193 21561.043 C -10673.014381214647 21566.699089250866 -10677.367498956039 21571.977077084695 -10682.193 21576.805 C -10687.020895962822 21581.632315829287 -10692.298865829263 21585.98742787617 -10697.955 21589.811 C -10703.653769370743 21593.660796313783 -10709.712460996101 21596.948853047947 -10716.046 21599.629 C -10729.159746627107 21605.180968801396 -10743.259427192756 21608.02818320809 -10757.5 21608 z M -10757 21426 C -10798.402394164088 21426.045742758495 -10831.954257241507 21459.597605835912 -10832 21501 C -10831.952607507954 21542.40170973486 -10798.401709734859 21575.952607507952 -10757 21576 C -10715.598290265143 21575.952607507952 -10682.047392492046 21542.40170973486 -10682 21501 C -10682.046292697667 21459.597833986318 -10715.597833986318 21426.046292697665 -10757 21426 z" stroke-linecap="round" />
</g>
		<g transform="matrix(0.7 0 0 0.7 -19.25 -0.26)" id="LGmY_We1v3l7EAML3fYAn"  >
<path style="stroke: none; stroke-width: 1; stroke-dasharray: none; stroke-linecap: butt; stroke-dashoffset: 0; stroke-linejoin: miter; stroke-miterlimit: 4; fill: rgb(225,0,0); fill-rule: nonzero; opacity: 1;" vector-effect="non-scaling-stroke"  transform=" translate(10767.83, -21501.13)" d="M -10793.792 21593.723 Q -10796.984999999999 21591.874000000003 -10800.042 21589.809 C -10805.698820699303 21585.987358088587 -10810.977780357096 21581.63426734635 -10815.806999999999 21576.809 C -10820.632767200017 21571.982041903484 -10824.985912018437 21566.704690954382 -10828.806999999999 21561.049000000003 C -10832.656012940482 21555.34959822136 -10835.944979967626 21549.291415396696 -10838.627999999999 21542.959000000003 C -10844.176752147932 21529.844748623862 -10847.022529949956 21515.745785168947 -10846.994999999999 21501.506 C -10847.022925889201 21487.264235942763 -10844.17714839139 21473.16323327971 -10838.627999999999 21460.047000000002 C -10835.94351887599 21453.715288820997 -10832.654626489488 21447.65724348225 -10828.806999999999 21441.957000000002 C -10824.984989113467 21436.300763892752 -10820.631923907331 21431.02217005356 -10815.806999999999 21426.193000000003 C -10810.978396384324 21421.36705433889 -10805.699369248408 21417.01390795342 -10800.042 21413.193000000003 Q -10795.803 21410.328 -10791.291 21407.873000000003 C -10783.630556735883 21405.959152218205 -10775.763895849503 21404.994249484713 -10767.867999999999 21405.000000000004 C -10736.546736793713 21404.978589321596 -10707.183447811227 21420.23445139828 -10689.194999999998 21445.875000000004 C -10703.01778185498 21433.08333554024 -10721.16163114611 21425.984018761505 -10739.994999999997 21425.998000000003 C -10781.396481606434 21426.045942347264 -10814.947057652736 21459.596518393566 -10814.994999999997 21500.998000000003 C -10814.947057652736 21542.39948160644 -10781.396481606434 21575.950057652743 -10739.994999999997 21575.998000000003 C -10720.91430906914 21576.012175685708 -10702.5510199195 21568.72661003633 -10688.669999999996 21555.635000000002 C -10706.597983791047 21581.70899809661 -10736.22022006007 21597.27738287497 -10767.862999999996 21597.256 C -10776.626585385118 21597.264977235143 -10785.350292580697 21596.07631367226 -10793.791999999996 21593.723 z" stroke-linecap="round" />
</g>
</g>
</g>
<g transform="matrix(2.44 0 0 2.42 75.3 75.3)" id="8q-Q14kCtT-HsCYVXXMcB"  >
<path style="stroke: rgb(97,92,12); stroke-width: 0; stroke-dasharray: none; stroke-linecap: butt; stroke-dashoffset: 0; stroke-linejoin: miter; stroke-miterlimit: 4; fill: rgb(255,255,255); fill-rule: nonzero; opacity: 1;" vector-effect="non-scaling-stroke"  transform=" translate(0, 0)" d="M 0 -25.79979 C 14.24149 -25.79979 25.79979 -14.241480000000001 25.79979 0 C 25.79979 14.24149 14.241480000000001 25.79979 0 25.79979 C -14.24149 25.79979 -25.79979 14.241480000000001 -25.79979 0 C -25.79979 -14.24149 -14.241480000000001 -25.79979 0 -25.79979 z" stroke-linecap="round" />
</g>
</svg>